<!-- <svg xmlns="http://www.w3.org/2000/svg" viewBox="0 0 32 32"><path fill="#529BBA" d="M10.3 23.3l.8-4H8.6v-2.1h3l.5-2.5H9.5v-2.1h3.1l.8-3.9h2.8l-.8 3.9h2.8l.8-3.9h2.8l-.8 3.9h2.5v2.1h-2.9l-.6 2.5h2.6v2.1h-3l-.8 4H16l.8-4H14l-.8 4h-2.9zm6.9-6.1l.5-2.5h-2.8l-.5 2.5h2.8z"/></svg> -->

<svg xmlns="http://www.w3.org/2000/svg"  viewBox="-1 -1 18 18">
	<defs>
		<style>
			.i-color {
			fill: #529BBA;
			fill-rule: evenodd;
			}
		</style>
	</defs>
	<path d="M3.785,2H14l-1.805,9.164L6.738,13,2,11.164,2.482,8.717H4.5L4.3,9.728l2.864,1.107,3.3-1.107L10.925,7.4h-8.2L3.12,5.355h8.206l0.258-1.313h-8.2Z" transform="translate(0 0)"/>
</svg>
